<mxfile host="65bd71144e">
    <diagram id="7W01BG6mMhKaWeEsTTmb" name="第 1 页">
        <mxGraphModel dx="898" dy="478" grid="1" gridSize="10" guides="1" tooltips="1" connect="1" arrows="1" fold="1" page="1" pageScale="1" pageWidth="827" pageHeight="1169" math="0" shadow="0">
            <root>
                <mxCell id="0"/>
                <mxCell id="1" parent="0"/>
                <mxCell id="3" value="&lt;p style=&quot;margin: 0px ; margin-top: 4px ; text-align: center&quot;&gt;&lt;i&gt;&amp;lt;&amp;lt;Interface&amp;gt;&amp;gt;&lt;/i&gt;&lt;br&gt;&lt;b&gt;Command&lt;/b&gt;&lt;/p&gt;&lt;hr size=&quot;1&quot;&gt;&lt;p style=&quot;margin: 0px ; margin-left: 4px&quot;&gt;+ execute()&lt;br&gt;&lt;/p&gt;" style="verticalAlign=top;align=left;overflow=fill;fontSize=12;fontFamily=Helvetica;html=1;" vertex="1" parent="1">
                    <mxGeometry x="320" y="280" width="130" height="70" as="geometry"/>
                </mxCell>
                <mxCell id="5" style="edgeStyle=none;html=1;entryX=0;entryY=0.5;entryDx=0;entryDy=0;endArrow=open;endFill=0;" edge="1" parent="1" source="4" target="3">
                    <mxGeometry relative="1" as="geometry"/>
                </mxCell>
                <mxCell id="4" value="Button" style="html=1;" vertex="1" parent="1">
                    <mxGeometry x="60" y="290" width="110" height="50" as="geometry"/>
                </mxCell>
                <mxCell id="7" style="edgeStyle=none;html=1;entryX=1;entryY=0.5;entryDx=0;entryDy=0;endArrow=open;endFill=0;" edge="1" parent="1" source="8" target="3">
                    <mxGeometry relative="1" as="geometry">
                        <mxPoint x="827" y="315" as="targetPoint"/>
                    </mxGeometry>
                </mxCell>
                <mxCell id="8" value="Shortcut" style="html=1;" vertex="1" parent="1">
                    <mxGeometry x="597" y="290" width="110" height="50" as="geometry"/>
                </mxCell>
                <mxCell id="14" style="edgeStyle=orthogonalEdgeStyle;html=1;entryX=0.5;entryY=1;entryDx=0;entryDy=0;endArrow=block;endFill=0;dashed=1;" edge="1" parent="1" source="13" target="3">
                    <mxGeometry relative="1" as="geometry">
                        <Array as="points">
                            <mxPoint x="225" y="400"/>
                            <mxPoint x="385" y="400"/>
                        </Array>
                    </mxGeometry>
                </mxCell>
                <mxCell id="13" value="Save&lt;br&gt;Command" style="html=1;" vertex="1" parent="1">
                    <mxGeometry x="170" y="460" width="110" height="50" as="geometry"/>
                </mxCell>
                <mxCell id="16" style="edgeStyle=orthogonalEdgeStyle;html=1;dashed=1;endArrow=block;endFill=0;" edge="1" parent="1" source="15">
                    <mxGeometry relative="1" as="geometry">
                        <mxPoint x="385" y="350" as="targetPoint"/>
                    </mxGeometry>
                </mxCell>
                <mxCell id="15" value="Open&lt;br&gt;Command" style="html=1;" vertex="1" parent="1">
                    <mxGeometry x="330" y="460" width="110" height="50" as="geometry"/>
                </mxCell>
                <mxCell id="18" style="edgeStyle=orthogonalEdgeStyle;html=1;entryX=0.5;entryY=1;entryDx=0;entryDy=0;dashed=1;endArrow=block;endFill=0;" edge="1" parent="1" source="17" target="3">
                    <mxGeometry relative="1" as="geometry">
                        <Array as="points">
                            <mxPoint x="542" y="400"/>
                            <mxPoint x="385" y="400"/>
                        </Array>
                    </mxGeometry>
                </mxCell>
                <mxCell id="17" value="Print&lt;br&gt;Command" style="html=1;" vertex="1" parent="1">
                    <mxGeometry x="487" y="460" width="110" height="50" as="geometry"/>
                </mxCell>
            </root>
        </mxGraphModel>
    </diagram>
</mxfile>